<?xml version="1.0" encoding="UTF-8" standalone="no"?>
<!-- Created with Inkscape (http://www.inkscape.org/) -->

<svg
   xmlns:dc="http://purl.org/dc/elements/1.1/"
   xmlns:cc="http://creativecommons.org/ns#"
   xmlns:rdf="http://www.w3.org/1999/02/22-rdf-syntax-ns#"
   xmlns:svg="http://www.w3.org/2000/svg"
   xmlns="http://www.w3.org/2000/svg"
   xmlns:sodipodi="http://sodipodi.sourceforge.net/DTD/sodipodi-0.dtd"
   xmlns:inkscape="http://www.inkscape.org/namespaces/inkscape"
   width="210mm"
   height="297mm"
   viewBox="0 0 744.09448819 1052.3622047"
   id="svg2"
   version="1.1"
   inkscape:version="0.91 r13725"
   sodipodi:docname="logo-svg.svg">
  <defs
     id="defs4" />
  <sodipodi:namedview
     id="base"
     pagecolor="#ffffff"
     bordercolor="#666666"
     borderopacity="1.0"
     inkscape:pageopacity="0.0"
     inkscape:pageshadow="2"
     inkscape:zoom="2"
     inkscape:cx="168.48971"
     inkscape:cy="886.22723"
     inkscape:document-units="px"
     inkscape:current-layer="layer1"
     showgrid="false"
     inkscape:window-width="1536"
     inkscape:window-height="811"
     inkscape:window-x="-8"
     inkscape:window-y="-8"
     inkscape:window-maximized="1" />
  <metadata
     id="metadata7">
    <rdf:RDF>
      <cc:Work
         rdf:about="">
        <dc:format>image/svg+xml</dc:format>
        <dc:type
           rdf:resource="http://purl.org/dc/dcmitype/StillImage" />
        <dc:title></dc:title>
      </cc:Work>
    </rdf:RDF>
  </metadata>
  <g
     inkscape:label="Layer 1"
     inkscape:groupmode="layer"
     id="layer1">
    <path
       style="fill:#00c6ff;fill-opacity:1"
       d="m 168.8125,39.115234 c -2.34987,0.07464 -4.61071,1.049921 -6.54297,2.896485 -3.59766,3.43812 -8.56191,4.514279 -16.33594,3.542969 -5.5048,-0.687771 -5.53515,-0.676698 -9.70898,3.539062 -5.04417,5.09483 -12.92047,8.958925 -18.37695,9.015625 -4.84461,0.05035 -7.00606,1.552543 -8.95899,6.226563 -0.81445,1.94925 -3.27402,5.079818 -5.46484,6.955078 -3.92699,3.36136 -4.936673,3.945136 -12.300783,7.128906 -2.64885,1.1452 -3.899651,2.412072 -4.337891,4.388672 -1.94458,8.77081 -6.586792,15.752574 -12.507812,18.814456 -3.82878,1.97994 -5.030711,4.509 -5.369141,11.30273 -0.30778,6.17841 -3.758756,14.2362 -7.566406,17.66211 -1.22256,1.1 -2.578762,2.9298 -3.013672,4.06641 -0.67004,1.75112 -2.752939,2.41993 -13.636719,4.38086 -7.06447,1.2728 -13.227665,2.66074 -13.697265,3.08593 -0.46961,0.42518 2.94474,7.22875 7.58789,15.11914 4.64315,7.8904 9.449501,16.17603 10.681641,18.41016 l 2.240234,4.06055 -2.068359,16.93945 c -1.13798,9.31587 -2.324772,18.85 -2.638672,21.1875 -0.67823,5.05049 -0.923759,5.00162 11.800781,2.3418 l 8.75,-1.83008 0,3.32227 c 0,4.72741 1.848086,8.16662 4.972656,9.25585 3.802371,1.32551 10.132869,10.34206 11.173829,15.91407 1.04601,5.59903 3.034776,7.94681 7.816406,9.23437 5.05374,1.36083 11.639663,7.29394 14.613283,13.16211 2.63097,5.19197 5.21431,6.84961 10.67383,6.84961 4.43693,0 10.95708,3.43486 15.41992,8.125 4.67722,4.9154 7.25291,6.04391 11.21289,4.9082 4.19183,-1.2022 14.07808,0.99179 18.79883,4.17188 2.10029,1.41485 4.49336,2.81078 5.31836,3.10351 0.825,0.29272 1.59575,0.56793 1.71289,0.61133 0.11714,0.0434 2.59214,-0.86564 5.5,-2.02148 4.12219,-1.63855 6.68396,-1.99241 11.6289,-1.60742 3.48824,0.27158 6.84191,0.9923 7.45117,1.60156 2.07165,2.07164 8.02021,1.1957 12.4961,-1.83789 5.24923,-3.55774 12.32228,-5.18476 19.06055,-4.38672 5.009,0.59325 5.12154,0.54576 9.62304,-4.08594 5.15509,-5.3042 13.35908,-9.55776 18.46289,-9.57226 3.36391,-0.01 8.06446,-3.14614 8.06446,-5.38086 0,-3.83773 11.80153,-14.62891 15.99804,-14.62891 2.73616,0 5.93737,-4.3258 6.86133,-9.27148 1.01979,-5.45867 7.13066,-14.06859 11.17578,-15.74414 2.95069,-1.22221 4.96485,-4.68226 4.96485,-8.53125 0,-2.98638 1.15256,-3.06679 11.48242,-0.79688 4.14623,0.91107 7.75511,1.43825 8.02148,1.17188 0.26637,-0.26637 -0.0289,-9.89905 -0.65625,-21.40625 l -1.14062,-20.92188 9.17578,-18.29883 c 5.04651,-10.06393 8.95761,-18.64936 8.69141,-19.08008 -0.2662,-0.43073 -6.35438,-1.83203 -13.5293,-3.11328 -9.05728,-1.61738 -13.04492,-2.73816 -13.04492,-3.66601 0,-0.73502 -1.51487,-3.02576 -3.36719,-5.08985 -4.90798,-5.46908 -7.89505,-11.99675 -8.1543,-17.81836 -0.31959,-7.17655 -1.19592,-9.23538 -4.6914,-11.04296 -6.05505,-3.131193 -10.64263,-9.576959 -13.42383,-18.859379 -0.8847,-2.95273 -2.6776,-4.233147 -9.36328,-6.685547 -3.95098,-1.44928 -12,-8.422765 -12,-10.396485 0,-0.71275 -1.164,-2.680847 -2.58789,-4.373047 -2.03951,-2.42381 -3.38148,-3.076171 -6.32227,-3.076171 -6.14151,0 -12.91976,-2.90979 -17.77734,-7.63086 -4.98932,-4.84906 -8.09866,-6.088592 -11.15821,-4.451172 -2.71136,1.45108 -10.99957,-0.325372 -15.3789,-3.294921 -5.02807,-3.40944 -6.59469,-3.725442 -10.45313,-2.113282 -4.59071,1.91806 -16.96006,1.912245 -20.32226,-0.0098 -1.82598,-1.043823 -3.70748,-1.530714 -5.53516,-1.472657 z m 123.53516,72.972656 c -194.89844,626.84954 -97.44922,313.42477 0,0 z m -39,160 c -168.89844,520.18288 -84.44922,260.09144 0,0 z"
       id="rect4149"
       inkscape:connector-curvature="0"
       sodipodi:nodetypes="sssssssssssssscscccsccsssssssssccssssssssssssssscssssssssssssssscssscccc" />
    <path
       inkscape:export-ydpi="59.02"
       inkscape:export-xdpi="59.02"
       inkscape:connector-curvature="0"
       id="path4387"
       d="m 167.34776,296.39726 c -0.825,-0.29273 -3.21843,-1.68983 -5.31872,-3.10468 -4.72075,-3.18009 -14.60626,-5.3739 -18.79809,-4.1717 -3.95998,1.13571 -6.53689,0.008 -11.21411,-4.9074 -4.46284,-4.69014 -10.98277,-8.1261 -15.4197,-8.1261 -5.45952,0 -8.04203,-1.65729 -10.673,-6.84926 -2.97362,-5.86817 -9.560748,-11.80017 -14.614488,-13.161 -4.78163,-1.28756 -6.76952,-3.63667 -7.81553,-9.2357 -1.04096,-5.57201 -7.37193,-14.58811 -11.1743,-15.91362 -3.12457,-1.08923 -4.97206,-4.5285 -4.97206,-9.25591 l 0,-3.32138 -8.75,1.82902 c -12.72454,2.65982 -12.48004,2.70834 -11.80181,-2.34215 0.3139,-2.3375 1.5018,-11.87207 2.63978,-21.18794 l 2.06905,-16.93794 -2.24024,-4.06206 c -1.23214,-2.23413 -6.03919,-10.51784 -10.68234,-18.40824 -4.64315,-7.89039 -8.05787,-14.69405 -7.58826,-15.11923 0.4696,-0.42519 6.63384,-1.81445 13.69831,-3.08725 10.88378,-1.96093 12.9652,-2.62965 13.63524,-4.38077 0.43491,-1.13661 1.79103,-2.96657 3.01359,-4.06657 3.80765,-3.42591 7.2601,-11.48304 7.56788,-17.66145 0.33843,-6.79373 1.5393,-9.32204 5.36808,-11.30198 5.92102,-3.06188 10.56258,-10.04446 12.50716,-18.81527 0.43824,-1.9766 1.69096,-3.24341 4.33981,-4.38861 7.36411,-3.18377 8.37303,-3.76861 12.300018,-7.12997 2.19082,-1.87526 4.64968,-5.00441 5.46413,-6.95366 1.95293,-4.67402 4.11499,-6.17668 8.9596,-6.22703 5.45648,-0.0567 13.33203,-3.92039 18.3762,-9.01522 4.17383,-4.21576 4.20498,-4.22711 9.70978,-3.53934 7.77403,0.97131 12.73882,-0.10569 16.33648,-3.54381 3.43512,-3.28278 7.90388,-3.80954 12.07754,-1.42366 3.3622,1.92201 15.73127,1.92806 20.32198,0.01 3.85844,-1.61216 5.42545,-1.29523 10.45352,2.11421 4.37933,2.96955 12.6673,4.74443 15.37866,3.29335 3.05955,-1.63742 6.16939,-0.39654 11.15871,4.45252 4.85758,4.72107 11.63487,7.63002 17.77638,7.63002 2.94079,0 4.28235,0.65291 6.32186,3.07672 1.42389,1.6922 2.58889,3.65989 2.58889,4.37264 0,1.97372 8.04902,8.94712 12,10.3964 6.68568,2.4524 8.47849,3.73244 9.36319,6.68517 2.7812,9.28242 7.36931,15.72802 13.42436,18.85921 3.49548,1.80758 4.37041,3.86794 4.69,11.04449 0.25925,5.82161 3.24662,12.34917 8.1546,17.81825 1.85232,2.06409 3.36785,4.35426 3.36785,5.08928 0,0.92785 3.98804,2.04855 13.04532,3.66593 7.17492,1.28125 13.26312,2.68195 13.52932,3.11268 0.2662,0.43072 -3.64497,9.01725 -8.69148,19.08118 l -9.17549,18.29805 1.14066,20.92218 c 0.62735,11.5072 0.92271,21.14011 0.65634,21.40648 -0.26637,0.26637 -3.87668,-0.26111 -8.02291,-1.17218 -10.32986,-2.26991 -11.48176,-2.19001 -11.48176,0.79637 0,3.84899 -2.0139,7.31017 -4.96459,8.53238 -4.04512,1.67555 -10.15728,10.28489 -11.17707,15.74356 -0.92396,4.94568 -4.12505,9.27111 -6.86121,9.27111 -4.19651,0 -15.99713,10.79171 -15.99713,14.62944 0,2.23472 -4.70054,5.37076 -8.06445,5.38033 -5.10381,0.0145 -13.3084,4.26817 -18.46349,9.57237 -4.5015,4.6317 -4.61429,4.6796 -9.62329,4.08635 -6.73827,-0.79804 -13.80973,0.8299 -19.05896,4.38764 -4.47589,3.03359 -10.42592,3.90776 -12.49756,1.83612 -0.60926,-0.60926 -3.96176,-1.32995 -7.45,-1.60153 -4.94494,-0.38499 -7.50708,-0.0308 -11.62927,1.60775 -2.90786,1.15584 -5.38286,2.066 -5.5,2.02258 -0.11714,-0.0434 -0.88798,-0.31845 -1.71298,-0.61117 z m 4.06574,-4.34506 c 2.68697,-1.43803 2.60234,-6.53691 -0.1328,-8.00071 -1.60793,-0.86054 -2.60745,-0.75218 -4.5,0.48787 -2.78938,1.82767 -3.14342,4.69469 -0.86151,6.97659 1.84273,1.84273 2.86643,1.94264 5.49431,0.53625 z m 30.10552,-0.61981 c 2.38121,-2.15496 2.31883,-4.59151 -0.17532,-6.84869 -2.94774,-2.66766 -6.99594,-0.68142 -6.99594,3.43255 0,4.5176 3.90085,6.37583 7.17126,3.41614 z m -58.17126,-7.34501 c 1.1,-1.1 2,-2.45 2,-3 0,-0.55 -0.9,-1.9 -2,-3 -1.1,-1.1 -2.45,-2 -3,-2 -0.55,0 -1.9,0.9 -3,2 -1.1,1.1 -2,2.45 -2,3 0,0.55 0.9,1.9 2,3 1.1,1.1 2.45,2 3,2 0.55,0 1.9,-0.9 3,-2 z m 87.82226,-2.31047 c 0.60723,-5.29582 -3.84267,-7.53444 -7.32594,-3.68547 -1.51522,1.67431 -1.62182,2.42509 -0.6478,4.56283 0.95738,2.1012 1.74572,2.50282 4.40867,2.24593 2.71947,-0.26234 3.29482,-0.76639 3.56507,-3.12329 z m -37.53444,-0.51344 c 0.74815,-0.62091 4.50512,-1.09948 8.34881,-1.0635 8.4925,0.0795 13.80752,-1.25139 18.33398,-4.59091 1.87987,-1.38692 4.62395,-2.52168 6.09794,-2.52168 6.28191,0 17.73714,-6.08335 19.74232,-10.48425 0.70839,-1.55475 2.56674,-2.84821 5.24496,-3.65062 5.25746,-1.57518 13.63277,-9.0464 15.57079,-13.88997 0.87159,-2.17832 2.99589,-4.69673 5.14025,-6.09389 4.41456,-2.87633 10.03693,-10.03857 10.76229,-13.70991 0.29028,-1.46925 0.95715,-3.99169 1.48192,-5.60542 0.52478,-1.61373 0.83332,-3.05488 0.68564,-3.20255 -0.55853,-0.55853 -12.21761,-2.13855 -12.65887,-1.7155 -0.25417,0.24369 0.0833,1.3165 0.75,2.38402 1.88411,3.01694 1.46109,3.96809 -1.7648,3.96809 -4.0442,0 -6.48847,3.70556 -5.59296,8.47903 0.642,3.42217 0.5995,3.47689 -2.25688,2.90561 -2.22393,-0.44478 -3.4143,-0.0422 -5.04221,1.70512 -2.26462,2.43079 -2.46476,3.05777 -2.15728,6.75823 0.17421,2.09664 -0.11537,2.27981 -2.70493,1.71105 -4.24929,-0.9333 -8.26879,2.47602 -8.26879,7.01354 0,3.30798 -1.22229,4.49479 -2.5,2.42742 -1.86402,-3.01605 -9.5,1.46312 -9.5,5.57258 0,2.67979 -1.06997,3.02518 -3.89879,1.25856 -2.92625,-1.82748 -8.05584,0.69202 -8.77992,4.31243 -0.64998,3.2499 -1.44276,3.47817 -4.69008,1.35044 -3.13487,-2.05404 -8.394,-0.28733 -9.24565,3.10592 -0.67995,2.70914 -2.8656,3.19744 -3.76942,0.84213 -0.98441,-2.56532 -8.85075,-1.54696 -10.10327,1.30794 -1.22035,2.7816 -2.64773,2.86496 -4.2808,0.25 -0.90711,-1.45252 -2.33202,-2 -5.20536,-2 -2.93289,0 -4.23323,0.51737 -5.02671,2 -1.41271,2.63967 -3.29075,2.53563 -4.51287,-0.25 -1.25402,-2.85834 -8.30985,-3.81816 -9.70759,-1.32055 -1.30628,2.3342 -3.4797,1.90134 -4.1651,-0.82952 -0.85165,-3.39325 -6.11078,-5.15996 -9.24565,-3.10592 -3.25767,2.13451 -4.36879,1.87759 -4.36879,-1.01019 0,-1.88241 -0.86595,-2.92912 -3.43799,-4.15564 -3.15924,-1.50654 -3.63642,-1.50945 -5.88538,-0.0359 -2.77993,1.82148 -3.67663,1.36141 -3.67663,-1.8864 0,-2.63251 -4.70174,-6.73859 -6.96249,-6.08043 -0.84563,0.24619 -2.32501,0.77181 -3.28751,1.16806 -1.47247,0.60618 -1.75,0.15992 -1.75,-2.81397 0,-4.66151 -3.76778,-7.87601 -8.194,-6.99077 -2.92442,0.58488 -3.00706,0.50312 -2.37952,-2.35408 0.94199,-4.28884 -3.30145,-8.80973 -7.48393,-7.97323 -3.10402,0.6208 -3.622178,-0.22306 -1.99915,-3.25573 1.57106,-2.93552 -2.210538,-8.10573 -5.928698,-8.10573 -2.98096,0 -4.21344,-2.1411 -2.0147,-3.5 1.75965,-1.08752 1.14398,-3.67454 -0.75,-3.15145 -0.9625,0.26583 -3.88499,0.77336 -6.49443,1.12783 l -4.74442,0.64449 1.49442,2.88991 c 0.82194,1.58944 1.49443,3.98639 1.49443,5.32655 0,3.52866 5.82637,11.66123 10.67839,14.90514 2.70449,1.80814 4.57995,4.01027 5.316788,6.24291 1.4549,4.40842 10.05177,12.1809 14.92396,13.49285 2.3691,0.63793 4.83685,2.37812 6.75503,4.76345 3.65005,4.53897 10.94131,8.36021 17.21207,9.02058 2.53757,0.26723 5.52657,1.31483 6.64223,2.328 3.46906,3.1504 10.5133,5.10812 18.27587,5.0792 4.30838,-0.016 8.61508,0.56832 10.5,1.42474 3.70532,1.68351 16.79865,1.39514 18.98348,-0.41811 z m -75.74754,-11.67609 c 1.99575,-3.14422 0.2028,-6.5 -3.47287,-6.5 -4.50226,0 -6.52618,4.39837 -3.44276,7.48179 2.06106,2.06107 5.27371,1.60498 6.91563,-0.98179 z m 138.45972,0.5 c 1.1,-1.1 2,-2.34987 2,-2.77749 0,-1.81543 -3.26193,-5.22251 -5,-5.22251 -1.73807,0 -5,3.40708 -5,5.22251 0,1.12566 3.82191,4.77749 5,4.77749 0.55,0 1.9,-0.9 3,-2 z M 95.777832,249.88376 c 1.3131,-1.87471 1.34177,-2.50906 0.1921,-4.25 -1.73735,-2.63087 -4.92627,-3.09943 -6.99752,-1.02817 -2.04581,2.0458 -2.06251,3.90107 -0.0532,5.91036 2.21323,2.21323 5.04869,1.95187 6.85864,-0.63219 z m 182.569928,0.20362 c 1.1,-1.1 2,-2.45 2,-3 0,-1.38244 -3.74147,-5 -5.17126,-5 -1.66027,0 -4.82874,3.05445 -4.82874,4.65499 0,1.56542 3.53562,5.34501 5,5.34501 0.55,0 1.9,-0.9 3,-2 z m -76,-7.9639 c 7.92603,-2.65897 11.93885,-5.27359 15.04018,-9.79968 4.48581,-6.54661 2.6309,-12.3204 -5.25034,-16.34283 -4.45157,-2.27199 -9.57226,-2.39299 -16.19877,-0.38277 -2.69991,0.81905 -8.36589,1.48918 -12.59107,1.48918 -4.22518,0 -9.89116,-0.67013 -12.59107,-1.48918 -8.98984,-2.72716 -16.78406,-1.17898 -21.75893,4.32201 -3.56548,3.94255 -1.50108,12.06109 4.31328,16.96263 9.1309,7.69739 33.84142,10.33825 49.03672,5.24064 z M 78.776332,226.51595 c 3.02042,-3.02041 1.28259,-7.42857 -2.92857,-7.42857 -2.68046,0 -4.5,1.81954 -4.5,4.5 0,4.21115 4.40816,5.94899 7.42857,2.92857 z m 216.621018,-0.98832 c 0.92391,-1.11325 1.02477,-2.32985 0.35232,-4.25 -1.66694,-4.75981 -8.40191,-3.77209 -8.40191,1.23219 0,4.28566 5.33685,6.28646 8.04959,3.01781 z m -151.42399,-11.9916 c 2.28804,-3.49198 0.73217,-4.85384 -4.5297,-3.96485 -4.4389,0.74995 -5.01065,1.84793 -2.44091,4.68746 2.31389,2.55682 5.00461,2.27789 6.97061,-0.72261 z m 85.80297,0.97992 c 2.42426,-2.42426 1.87663,-4.11753 -1.55357,-4.80357 -5.03102,-1.0062 -5.875,-0.76558 -5.875,1.675 0,4.39574 4.3355,6.22165 7.42857,3.12857 z M 99.847762,207.68826 c 31.507468,-4.06576 47.584308,-5.03661 83.499998,-5.04238 42.54924,-0.007 76.47497,2.87784 116.5,9.9059 7.15,1.25549 13.19006,2.11204 13.42236,1.90345 0.2323,-0.20858 -0.0424,-8.36418 -0.6105,-18.12354 l -1.03286,-17.74431 7.9574,-15.81976 c 4.37658,-8.70087 7.75134,-16.02583 7.49948,-16.27769 -1.59225,-1.59226 -44.99463,-8.24662 -70.73588,-10.84508 -53.72165,-5.42295 -112.78555,-4.54319 -167.499998,2.49494 -17.03115,2.19079 -44.74003,6.73091 -47.65057,7.80759 -1.50507,0.55676 -0.49497,2.79414 7.19995,15.94794 5.32579,9.10398 8.94557,16.3921 8.93815,17.99619 -0.007,1.48273 -0.87823,9.64767 -1.93638,18.14431 -1.05815,8.49664 -1.75181,15.72689 -1.54147,16.06721 0.21033,0.34033 6.1442,-0.38308 13.18637,-1.60758 7.04217,-1.2245 21.80395,-3.38773 32.80395,-4.80719 z m -26.03472,-8.5929 c -1.11909,-0.43134 -2.58109,-1.44259 -3.24887,-2.24722 -1.42816,-1.72083 -9.30235,-38.59994 -8.35915,-39.15044 0.35351,-0.20632 2.08861,-0.68515 3.85578,-1.06406 2.81617,-0.60384 3.27523,-0.4022 3.71649,1.6324 0.2769,1.27674 1.6785,8.39634 3.11467,15.82134 3.72889,19.27833 3.27141,18 6.44176,18 4.74487,0 4.89814,-1.3947 1.92315,-17.5 -3.66701,-19.85155 -3.66451,-20.17518 0.1624,-21.01571 1.68932,-0.37103 3.29727,-0.44884 3.57322,-0.17289 0.27594,0.27594 1.91131,9.04917 3.63416,19.49606 3.5994,21.82584 3.40664,23.44312 -2.98444,25.03901 -6.66127,1.66337 -9.74225,1.96589 -11.82917,1.16151 z m 214.131148,-0.45148 c -7.33609,-1.56084 -8.90474,-3.41379 -8.32045,-9.82849 0.23906,-2.62459 0.69259,-5.02991 1.00783,-5.34516 0.31525,-0.31524 1.92999,-0.27517 3.58832,0.0891 2.60657,0.5725 3.05665,1.1613 3.3215,4.34517 0.27584,3.31591 0.61808,3.71324 3.43434,3.98718 2.70749,0.26335 3.21798,-0.0727 3.79749,-2.5 0.36823,-1.54234 0.89185,-3.55515 1.1636,-4.47292 0.36783,-1.24227 -1.30351,-2.64766 -6.5408,-5.5 -6.69796,-3.64784 -7.03058,-3.99897 -6.94514,-7.33134 0.19061,-7.43456 2.30598,-14.24388 5.05919,-16.28542 2.46675,-1.82913 3.14897,-1.88231 9.28787,-0.72398 7.89636,1.48994 10.88315,3.58158 10.88315,7.62145 0,5.57222 -1.21196,8.38904 -3.60238,8.37264 -3.40613,-0.0234 -4.53731,-1.17623 -4.8996,-4.99343 -0.28538,-3.0069 -0.72977,-3.53679 -3.20317,-3.81944 -3.57677,-0.40873 -4.26172,0.31318 -5.05533,5.32818 l -0.633,4 7.03008,3.80861 c 3.86654,2.09474 7.03007,4.20282 7.03007,4.68463 0,0.4818 -0.69077,4.16793 -1.53504,8.19138 -2.25092,10.72695 -4.80986,12.51199 -14.86853,10.37188 z m -79.96157,-4.62908 c -3.34866,-2.63406 -3.3836,-5.93508 -0.13067,-12.3469 2.24191,-4.41901 2.49257,-6.09758 2.46401,-16.5 -0.0236,-8.59493 -0.41032,-12.08097 -1.5,-13.52165 -2.72452,-3.60213 -1.25764,-11.55887 2.13095,-11.55887 1.12253,0 1.44535,0.86366 1.21482,3.25 -0.27859,2.88373 -0.0322,3.25 2.18603,3.25 2.08957,0 2.55145,-0.53356 2.81336,-3.25 0.35332,-3.66444 1.613,-4.19036 3.15146,-1.31574 1.65471,3.09186 1.20742,7.01511 -1.18243,10.37134 -1.8533,2.60273 -2.32778,5.01011 -2.88828,14.65437 -0.5844,10.05544 -0.42776,12.10313 1.2176,15.91715 1.03856,2.40741 1.88829,5.41225 1.88829,6.67742 0,2.53269 -4.24941,6.44546 -7,6.44546 -0.95166,0 -2.91597,-0.93266 -4.36514,-2.07258 z m 5.94718,-7.46815 c -3.21989,-2.39295 -6.22987,1.4929 -3.37093,4.35184 0.94815,0.94815 1.65381,0.76193 3.25,-0.85767 2.00368,-2.03305 2.00576,-2.0934 0.12093,-3.49417 z m 46.99727,7.94054 c -4.90637,-0.77432 -9.01002,-1.51854 -9.1192,-1.65383 -0.28357,-0.35136 4.75866,-43.16988 5.13633,-43.61761 0.17241,-0.20439 4.04625,0.15414 8.60852,0.79673 15.31561,2.1572 14.79504,1.9768 14.79504,5.12717 0,1.55633 -0.42093,3.08984 -0.9354,3.4078 -0.51447,0.31796 -4.14939,0.0794 -8.07761,-0.53004 -3.92821,-0.60948 -7.28885,-0.95557 -7.46809,-0.76909 -0.17924,0.18648 -0.63829,2.86346 -1.0201,5.94884 l -0.69421,5.60978 6.19837,0.70127 c 5.75151,0.6507 6.15605,0.85907 5.61136,2.89022 -0.32285,1.20392 -0.59316,2.78383 -0.60067,3.51091 -0.0105,1.0215 -1.28893,1.16262 -5.62484,0.62088 -6.54334,-0.81754 -7.35016,-0.13477 -7.3735,6.23977 -0.0171,4.66452 0.10088,4.74297 8.79048,5.84657 5.22909,0.6641 5.30136,0.71936 5,3.82233 -0.37244,3.83476 -1.14686,3.95469 -13.22648,2.0483 z m -154.96711,-0.21827 c -0.25594,-0.41412 -3.91595,-9.51188 -8.133348,-20.21724 -4.2174,-10.70537 -7.87747,-19.97176 -8.13348,-20.59199 -0.64256,-1.55669 5.86089,-2.46849 7.27441,-1.01988 0.61588,0.63116 3.051098,6.77257 5.411598,13.64757 2.3605,6.875 4.62281,12.88122 5.02736,13.34715 0.40456,0.46593 1.06428,-4.03407 1.46605,-10 0.40178,-5.96593 1.01374,-12.87215 1.35992,-15.34715 0.60778,-4.34524 0.75815,-4.51067 4.37236,-4.81037 2.05861,-0.1707 3.74293,-0.14997 3.74293,0.0461 0,1.32102 -5.11145,44.19684 -5.28374,44.32109 -0.98299,0.70886 -6.73922,1.2151 -7.10406,0.62477 z m 22.33003,-2.36818 c -0.64704,-3.50967 -4.55766,-43.44192 -4.28469,-43.75189 0.2124,-0.24119 2.51385,-0.46619 5.11432,-0.5 l 4.72814,-0.0615 4.32973,13.33694 c 2.38134,7.33532 4.54429,13.12237 4.80654,12.86012 0.26226,-0.26225 1.47647,-6.47135 2.69826,-13.79799 l 2.22142,-13.32117 3.92932,-0.81639 c 2.16113,-0.44902 4.46128,-0.61226 5.11146,-0.36277 0.81161,0.31145 1.39587,6.04036 1.86401,18.27745 0.37504,9.80309 0.76229,19.62381 0.86057,21.82381 0.17596,3.9388 0.12514,4 -3.32131,4 -3.37682,0 -3.50841,-0.14077 -3.73905,-4 -1.37445,-22.99811 -1.94326,-23.85604 -4.31413,-6.50696 -2.25376,16.49221 -5.13146,16.17811 -10.81189,-1.18013 l -4.02935,-12.31291 0.59832,10 c 1.03299,17.26476 1.22953,15.95821 -2.4539,16.31336 -1.7875,0.17235 -3.276,0.17235 -3.30777,0 z m 108.50381,-8.06336 c -1.49501,-4.5375 -2.91876,-8.47429 -3.16388,-8.74843 -0.96401,-1.07809 -3.28216,3.55838 -3.28216,6.56456 0,6.34523 -1.10714,9.4349 -3.375,9.41856 -4.67059,-0.0337 -4.76958,-0.5256 -3.63564,-18.06598 0.58379,-9.03029 1.31052,-18.80626 1.61495,-21.72437 l 0.55351,-5.30566 3.67109,0.30566 3.67109,0.30566 -0.30695,9 -0.30696,9 5.30134,-8.25 c 5.27591,-8.21044 5.32174,-8.25 9.55695,-8.25 2.34059,0 4.25562,0.24226 4.25562,0.53836 0,0.2961 -2.77183,4.66067 -6.15963,9.69904 l -6.15963,9.16068 4.07197,12.30096 4.07196,12.30096 -3.83021,0 -3.83022,0 -2.7182,-8.25 z m -56.44604,-16.75 0,-22 9.54545,0 c 8.8993,0 9.71814,0.17268 12.09638,2.55092 2.42281,2.42281 2.51561,2.91249 1.84771,9.75 -0.38677,3.9595 -1.34957,7.93098 -2.13955,8.82552 -1.25247,1.41825 -1.2388,1.70225 0.10684,2.21862 2.55456,0.98028 2.15418,14.60844 -0.52941,18.02008 -1.97719,2.51359 -2.50648,2.63486 -11.5,2.63486 l -9.42742,0 0,-22 z m 13.93225,15.06303 c 0.9018,-0.57066 1.45734,-2.69457 1.5,-5.73468 l 0.0677,-4.82835 -3.75,-0.31037 -3.75,-0.31036 0,5.3937 c 0,2.96653 0.3,5.6937 0.66667,6.06036 0.93741,0.93742 3.5707,0.80224 5.26558,-0.2703 z m 1.00641,-19.48913 c 0.65096,-0.78435 1.04356,-3.37185 0.87245,-5.75 -0.30292,-4.2101 -0.40981,-4.33207 -4.06111,-4.63427 l -3.75,-0.31036 0,5.3937 c 0,2.96653 0.3,5.6937 0.66667,6.06036 1.17951,1.17951 5.05196,0.71063 6.27199,-0.75943 z M 67.429552,135.08738 c 1.05501,0 1.91821,-0.39752 1.91821,-0.88337 0,-1.35411 -3.51401,-1.96811 -5.35797,-0.93618 -2.10282,1.1768 -2.15379,3.22991 -0.0602,2.42654 0.86999,-0.33385 2.44499,-0.60699 3.5,-0.60699 z m 237.918208,0.12244 c 0,-1.62359 -2.87144,-3.27868 -5.11663,-2.9492 -3.30911,0.4856 -3.44133,2.61642 -0.19266,3.10478 4.96628,0.74657 5.30929,0.73652 5.30929,-0.15558 z M 83.847762,132.56779 c 3.3,-0.37588 6.33061,-1.20024 6.73469,-1.83191 1.22609,-1.91669 0.85405,-5.32996 -0.72368,-6.63936 -1.91617,-1.59029 -1.02359,-3.00914 1.89302,-3.00914 4.35068,0 6.6992,-4.52034 5.06556,-9.75 -0.62304,-1.9945 -0.35718,-2.25 2.3412,-2.25 4.280238,0 7.443968,-4.12511 6.602748,-8.60918 -0.6167,-3.28731 -0.6072,-3.29651 2.82821,-2.73902 2.92784,0.47513 3.7775,0.13919 5.64157,-2.2306 1.59683,-2.03004 2.02615,-3.55689 1.57618,-5.60559 -0.68863,-3.1353 -0.59493,-3.1978 2.83765,-1.89273 3.73198,1.41889 8.70285,-1.95573 8.70285,-5.90818 0,-3.19674 0.93592,-3.65455 4.05671,-1.98435 3.36553,1.80118 10.23558,-3.13037 8.43022,-6.05149 -1.04315,-1.68787 1.52085,-2.01987 3.84392,-0.49773 3.53744,2.31781 9.66915,-0.62219 9.66915,-4.63612 0,-2.21001 2.5457,-2.47129 3.36163,-0.34501 0.66781,1.74029 5.80797,2.01478 8.70411,0.46482 1.06384,-0.56936 1.93426,-1.91936 1.93426,-3 0,-2.54599 2.16861,-2.52574 3.76793,0.0352 1.94686,3.11741 7.53136,2.70471 10.14866,-0.75 l 2.08341,-2.75 2.08341,2.75 c 2.6173,3.45472 8.2018,3.86742 10.14866,0.75 1.44453,-2.31306 3.76793,-2.66541 3.76793,-0.57143 0,3.93443 9.27918,6.61344 10.63837,3.07143 0.83462,-2.17497 3.36163,-1.84173 3.36163,0.4433 0,3.67503 8.66651,7.02336 10.5,4.0567 1.01044,-1.63493 3.78783,-1.19245 3.13837,0.5 -1.43865,3.74906 4.61194,8.50677 8.30492,6.53035 3.12079,-1.6702 4.05671,-1.21239 4.05671,1.98435 0,3.95245 4.97087,7.32707 8.70285,5.90818 3.43258,-1.30507 3.52628,-1.24257 2.83765,1.89273 -0.97511,4.43963 2.65863,8.4034 7.33255,7.99855 3.72749,-0.32287 3.73755,-0.30548 2.44398,4.22335 -0.74619,2.61244 3.47457,6.96249 6.75555,6.96249 3.06799,0 3.55577,0.9574 1.98402,3.89424 -1.38591,2.58961 2.19502,8.10576 5.26203,8.10576 3.33088,0 3.80786,0.87732 1.98747,3.65558 -1.2421,1.89568 -1.35264,2.94686 -0.50545,4.80624 0.89787,1.9706 2.08314,2.49359 6.89185,3.04095 3.19413,0.36358 6.6607,0.90037 7.70349,1.19287 1.72342,0.4834 1.83249,0.13461 1.19834,-3.83192 -0.79307,-4.96051 -4.17821,-11.21863 -7.99917,-14.78803 -1.42734,-1.33338 -2.59516,-3.3288 -2.59516,-4.43428 0,-5.12046 -7.29189,-15.1087 -13.16846,-18.03781 -1.28235,-0.63917 -2.95227,-2.49896 -3.71095,-4.13287 -2.76556,-5.95599 -11.58412,-13.47073 -15.80793,-13.47073 -1.516,0 -3.98906,-1.64812 -6.77618,-4.51586 -5.18985,-5.33996 -11.45554,-8.43177 -17.14898,-8.46218 -3.02112,-0.0161 -5.09157,-0.80003 -7.80185,-2.95389 -4.57813,-3.63824 -8.06466,-4.44097 -15.52694,-3.57488 -4.54711,0.52774 -6.56269,0.29755 -9.16143,-1.04631 -3.77067,-1.94989 -15.40029,-2.31841 -18.62924,-0.59033 -1.07813,0.577 -5.06851,1.03926 -8.86752,1.02725 -7.50553,-0.0237 -10.83389,0.89807 -15.3807,4.25967 -1.6344,1.20836 -5.36894,2.51007 -8.36946,2.91725 -7.10687,0.96442 -11.90402,3.32966 -16.42092,8.09635 -2.06819,2.18256 -5.2783,4.31754 -7.3173,4.86659 -4.59241,1.2366 -12.55119,8.17671 -14.37065,12.53129 -0.79687,1.90717 -3.125328,4.4198 -5.463928,5.89609 -5.13456,3.2413 -10.70789,10.83573 -11.47567,15.63716 -0.35027,2.19045 -2.19775,5.62524 -4.56932,8.49517 -5.65193,6.83962 -9.02716,17.10473 -5.28257,16.06593 0.9625,-0.26701 4.45,-0.79301 7.75,-1.16889 z m 61.152668,-7.01766 c 0.78376,-2.04245 -2.41421,-5.46275 -5.10766,-5.46275 -2.7857,0 -4.54501,1.8193 -4.54501,4.7 0,2.06162 0.46965,2.3 4.53138,2.3 3.15421,0 4.71067,-0.4672 5.12129,-1.53725 z m 86.34733,-0.76275 c 0,-4.74305 -5.6367,-6.48447 -8.36786,-2.5852 -2.30562,3.29174 -1.0091,4.8852 3.97485,4.8852 3.91734,0 4.39301,-0.24904 4.39301,-2.3 z m -63.4601,-4.35907 c 8.05774,-2.24296 22.22474,-2.28492 30.49343,-0.0903 6.88132,1.8264 9.59691,1.5433 15.75816,-1.64281 4.09002,-2.11503 6.54906,-6.78083 5.67385,-10.76562 -1.01329,-4.61347 -8.09162,-11.24801 -14.53687,-13.62544 -9.2524,-3.41289 -20.6113,-4.63944 -30.10694,-3.251 -15.29591,2.23656 -24.0164,7.06551 -27.22047,15.07327 -1.41351,3.53271 -1.43535,4.42181 -0.18227,7.42085 1.55313,3.71716 7.65494,7.50434 13.62111,8.45416 0.29695,0.0473 3.22195,-0.66062 6.5,-1.57311 z m -86.504008,-8.40799 c 1.38693,-2.59151 -1.11006,-6.93294 -3.98751,-6.93294 -1.99606,0 -5.04838,2.46985 -5.04838,4.085 0,4.53233 6.96036,6.7261 9.03589,2.84794 z m 210.964108,0.0671 c 1.1,-1.1 2,-2.64948 2,-3.4433 0,-1.39157 -3.6276,-4.5567 -5.22251,-4.5567 -1.12566,0 -4.77749,3.82191 -4.77749,5 0,0.55 0.9,1.9 2,3 1.1,1.1 2.45,2 3,2 0.55,0 1.9,-0.9 3,-2 z M 98.527862,87.59148 c 0.93966,-2.06233 0.82215,-2.84409 -0.67642,-4.5 -3.10676,-3.43292 -7.50368,-1.97038 -7.50368,2.49594 0,4.80483 6.21071,6.32641 8.1801,2.00406 z m 177.367918,0.063 c 2.16285,-3.30093 0.48021,-6.56706 -3.3832,-6.56706 -4.82707,0 -6.84673,4.17523 -3.59339,7.42857 2.2819,2.2819 5.14892,1.92787 6.97659,-0.86151 z M 120.14776,69.88738 c 2.805,-2.805 0.69173,-7.8 -3.3,-7.8 -2.68046,0 -4.5,1.81954 -4.5,4.5 0,2.68046 1.81954,4.5 4.5,4.5 1.155,0 2.64,-0.54 3.3,-1.2 z m 133,0 c 1.64219,-1.64219 1.50959,-5.29817 -0.24496,-6.75432 -2.01846,-1.67517 -5.5704,-0.93249 -7.17721,1.5007 -2.69849,4.08631 3.91106,8.76473 7.42217,5.25362 z M 146.89578,55.65444 c 2.16285,-3.30093 0.48021,-6.56706 -3.3832,-6.56706 -4.82707,0 -6.84673,4.17523 -3.59339,7.42857 2.2819,2.2819 5.14892,1.92787 6.97659,-0.86151 z m 80.4722,0.39517 c 2.19586,-4.10301 -1.34504,-7.94608 -5.96907,-6.47847 -4.70464,1.4932 -3.09749,8.51624 1.94885,8.51624 1.92428,0 3.30388,-0.6993 4.02022,-2.03777 z m -26.02022,-4.96223 c 2.46318,-2.46317 2.48325,-3.18165 0.16872,-6.03997 -1.41365,-1.74578 -2.43643,-2.10966 -4.48477,-1.59555 -3.80361,0.95464 -4.77152,5.33644 -1.72392,7.80424 2.85832,2.31452 3.57679,2.29445 6.03997,-0.16872 z m -29.93426,-0.0352 c 2.34041,-1.25255 2.53516,-5.22106 0.36283,-7.39339 -3.00084,-3.00085 -7.42857,-0.96592 -7.42857,3.41406 0,4.12674 3.30859,5.99009 7.06574,3.97933 z"
       style="opacity:0.87999998;fill:#000000" />
  </g>
</svg>
