<?xml version="1.0" encoding="UTF-8" standalone="no"?>
<!-- Created with Inkscape (http://www.inkscape.org/) -->

<svg
   xmlns:dc="http://purl.org/dc/elements/1.1/"
   xmlns:cc="http://creativecommons.org/ns#"
   xmlns:rdf="http://www.w3.org/1999/02/22-rdf-syntax-ns#"
   xmlns:svg="http://www.w3.org/2000/svg"
   xmlns="http://www.w3.org/2000/svg"
   xmlns:sodipodi="http://sodipodi.sourceforge.net/DTD/sodipodi-0.dtd"
   xmlns:inkscape="http://www.inkscape.org/namespaces/inkscape"
   width="210mm"
   height="297mm"
   viewBox="0 0 744.09448819 1052.3622047"
   id="svg2"
   version="1.1"
   inkscape:version="0.91 r13725"
   sodipodi:docname="drawing.svg">
  <defs
     id="defs4" />
  <sodipodi:namedview
     id="base"
     pagecolor="#ffffff"
     bordercolor="#666666"
     borderopacity="1.0"
     inkscape:pageopacity="0.0"
     inkscape:pageshadow="2"
     inkscape:zoom="1.4"
     inkscape:cx="378.04138"
     inkscape:cy="824.37014"
     inkscape:document-units="px"
     inkscape:current-layer="layer1"
     showgrid="false"
     inkscape:window-width="1536"
     inkscape:window-height="811"
     inkscape:window-x="-8"
     inkscape:window-y="-8"
     inkscape:window-maximized="1" />
  <metadata
     id="metadata7">
    <rdf:RDF>
      <cc:Work
         rdf:about="">
        <dc:format>image/svg+xml</dc:format>
        <dc:type
           rdf:resource="http://purl.org/dc/dcmitype/StillImage" />
        <dc:title></dc:title>
      </cc:Work>
    </rdf:RDF>
  </metadata>
  <g
     inkscape:label="Layer 1"
     inkscape:groupmode="layer"
     id="layer1">
    <path
       style="fill:#282223"
       d="m 167.46869,445.13802 c -0.52413,-0.61534 -2.12761,-3.16013 -3.56331,-5.6551 -3.64284,-6.33052 -7.90465,-13.43672 -14.22096,-23.71231 -2.97754,-4.84401 -5.41372,-9.28717 -5.41372,-9.8737 0,-1.00467 4.13992,-8.44103 8.72119,-15.66542 1.13008,-1.78212 4.03265,-6.73967 6.45007,-11.01677 5.75723,-10.18617 7.1765,-12.56227 7.98827,-13.37404 0.46545,-0.46548 0.81653,0.94722 1.13807,4.57952 0.38074,4.30069 0.71362,5.42681 1.83682,6.21354 1.14159,0.79958 4.78573,0.96087 21.70982,0.96087 l 20.33799,0 1.3133,1.66961 c 1.28163,1.62933 3.58307,5.74791 6.83817,12.23734 1.04024,2.07389 1.82236,5.12642 2.2045,8.60416 0.51377,4.67527 0.41029,6.05356 -0.78025,10.39474 -1.82852,6.66761 -3.18719,9.47805 -6.69882,13.85684 -2.14378,2.67308 -4.04966,4.21248 -7.02818,5.67667 -5.06776,2.49122 -8.64995,3.07721 -24.09042,3.94077 -6.72495,0.37612 -12.77603,0.97767 -13.44694,1.33668 -1.02583,0.54903 -1.21983,1.41611 -1.21983,5.45214 0,5.08736 -0.52543,6.19469 -2.07577,4.37446 z m 430.87356,-6.60758 c -0.98887,-1.17524 -2.38652,-3.29046 -3.1059,-4.7005 -0.71933,-1.41004 -2.27899,-3.92278 -3.46585,-5.58386 -1.18686,-1.66108 -2.95918,-4.47825 -3.93846,-6.26038 -0.97927,-1.78212 -2.71582,-4.69832 -3.85897,-6.48045 -7.71096,-12.021 -8.27222,-13.16688 -7.51442,-15.34074 0.39561,-1.13487 1.56531,-3.39663 2.59933,-5.02614 1.03402,-1.62951 4.48504,-7.48286 7.66891,-13.00744 3.18393,-5.52459 7.21959,-12.47728 8.96822,-15.45043 l 3.17926,-5.40574 0.16222,2.48953 c 0.34071,5.22866 0.92147,8.01696 1.86678,8.96224 0.83323,0.83324 4.05806,0.97981 21.55798,0.97981 23.76645,0 20.96503,-0.84098 26.09568,7.83385 4.22655,7.14614 5.18903,9.95438 5.56308,16.23164 0.55644,9.33811 -2.83486,18.42805 -9.07802,24.33259 -5.82318,5.50731 -8.65047,6.31252 -25.7543,7.33477 -12.96339,0.77478 -14.71404,0.9415 -16.78312,1.59819 -1.39905,0.44403 -2.40669,2.91325 -1.8165,4.45124 0.18337,0.47795 0.13516,1.83864 -0.10726,3.02378 l -0.44067,2.15478 z M 69.421491,428.50462 c -0.356425,-0.13701 -1.467226,-0.43032 -2.468482,-0.65179 -2.85565,-0.63165 -7.103405,-5.04474 -10.475935,-10.88367 -4.580539,-7.93041 -10.034694,-17.27252 -12.015742,-20.58124 -0.960351,-1.60391 -3.132546,-5.54079 -4.827106,-8.74861 -1.694612,-3.20782 -3.736784,-6.70727 -4.538234,-7.77654 -1.848951,-2.46693 -5.063877,-8.782 -4.67085,-9.17503 0.16367,-0.16365 1.42264,0.19252 2.797792,0.79149 2.620798,1.14157 12.094233,1.46474 74.100276,2.52783 12.64813,0.21686 23.26254,0.66017 23.5875,0.98513 0.3558,0.35578 0.25911,6.46994 -0.24299,15.3676 -0.45861,8.12721 -0.95947,19.15104 -1.11309,24.49742 -0.19285,6.71415 -0.55379,10.14604 -1.16684,11.09597 -0.86921,1.34674 -1.37624,1.38407 -24.4186,1.79817 -12.942031,0.23259 -25.863895,0.55327 -28.715293,0.71264 -2.851399,0.15936 -5.475981,0.17765 -5.832406,0.0406 z m 429.490349,-5.31913 c -3.709,-1.82867 -7.53055,-5.80033 -10.60586,-11.02256 -1.64614,-2.79524 -4.3939,-7.41523 -6.10619,-10.26663 -1.71229,-2.85139 -3.71911,-6.36277 -4.45959,-7.80306 -0.74048,-1.44028 -2.6167,-4.6481 -4.16926,-7.12849 -3.78474,-6.04633 -11.11009,-19.19166 -11.11009,-19.93703 0,-0.32834 0.94781,-0.40734 2.10615,-0.17557 6.43317,1.28717 13.75364,1.60982 53.7639,2.36963 29.79272,0.56577 43.96049,1.05534 44.12816,1.52486 0.13583,0.38035 0,4.92004 -0.30443,10.0882 -0.30323,5.16816 -0.77822,16.45422 -1.05548,25.08012 -0.27732,8.62591 -0.6833,15.86259 -0.90224,16.08153 -0.46498,0.46497 -22.18331,1.39699 -43.94831,1.88601 -13.13484,0.29512 -15.51887,0.19928 -17.33676,-0.69701 z m -122.47898,-9.73602 c -0.50599,-0.20013 -0.81005,-1.61091 -0.81005,-3.75851 0,-3.41761 0.0135,-3.44066 2.27308,-3.86455 1.31434,-0.24657 2.68089,-1.04883 3.23997,-1.90208 0.86781,-1.32451 0.8352,-1.96862 -0.31869,-6.28816 -0.70704,-2.64687 -2.4382,-9.24443 -3.84705,-14.66124 -1.4088,-5.41682 -2.8445,-10.37763 -3.19046,-11.02402 -1.06098,-1.98245 -2.88535,-3.26216 -5.93339,-4.162 -3.4195,-1.0095 -7.65917,-4.94677 -9.7592,-9.0631 -1.14315,-2.24082 -1.40989,-3.81861 -1.35286,-8.00294 0.0888,-6.51181 0.49568,-5.82318 -10.55225,-17.85805 -1.80695,-1.96842 -6.20163,-6.89789 -9.76588,-10.95439 -9.25979,-10.53866 -35.17848,-39.55736 -41.13848,-46.0589 -2.77726,-3.02961 -6.90531,-7.68047 -9.17341,-10.33524 -2.26816,-2.65477 -5.73805,-6.59165 -7.71086,-8.74861 -1.9728,-2.15696 -4.9268,-5.52566 -6.56444,-7.486 -1.63763,-1.96034 -5.12686,-5.91712 -7.75383,-8.79285 -2.62702,-2.87573 -5.66065,-6.22936 -6.74148,-7.45252 -9.79891,-11.08938 -13.36,-15.08353 -16.46336,-18.4657 -12.26593,-13.36784 -16.62614,-17.78059 -17.56886,-17.78059 -0.58542,0 -1.53473,0.51973 -2.10957,1.15495 -1.14621,1.26652 -5.26135,12.62902 -5.97995,16.51145 -0.24813,1.34052 -0.70974,2.59712 -1.02573,2.79243 -0.31604,0.19532 -0.57458,0.84899 -0.57458,1.45261 0,0.60363 -1.19386,4.15877 -2.65299,7.90031 -1.45909,3.74154 -3.19772,8.40672 -3.8636,10.36705 -2.4762,7.28995 -3.30409,9.51276 -5.31029,14.25699 -1.13039,2.67319 -2.52577,5.58939 -3.10087,6.48046 -0.5751,0.89106 -1.64344,2.78659 -2.37417,4.21229 -3.3252,6.48803 -4.83883,9.02801 -8.37632,14.05635 -7.5039,10.66635 -16.0581,19.73499 -29.72962,31.51762 -9.27923,7.9972 -10.0447,8.83524 -10.0447,10.99717 0,2.90143 -2.39185,6.84181 -5.29619,8.725 -5.42387,3.51693 -14.11654,1.63397 -17.22809,-3.73186 -1.26411,-2.17997 -1.47179,-3.33172 -1.30605,-7.24294 0.26368,-6.22316 2.26837,-8.86041 8.59298,-11.30439 4.47389,-1.72882 7.85171,-4.29978 19.53897,-14.87187 17.2281,-15.58416 27.29157,-31.91782 36.77257,-59.68412 0.93324,-2.73306 1.69679,-5.58797 1.69679,-6.34426 0,-0.75629 0.55094,-2.45702 1.22434,-3.77942 0.6734,-1.32239 2.69364,-6.63284 4.4895,-11.801 1.79581,-5.16816 4.62906,-13.18772 6.29615,-17.82124 1.66703,-4.63353 3.25085,-9.29945 3.51966,-10.36873 0.26881,-1.06927 1.00006,-3.11061 1.62504,-4.53631 0.62502,-1.4257 1.6634,-4.19609 2.30761,-6.15643 0.64421,-1.96034 2.66554,-7.79274 4.49183,-12.9609 1.82635,-5.16816 4.87149,-13.93363 6.76699,-19.47882 1.89551,-5.54519 3.77821,-10.70228 4.18383,-11.46019 0.40563,-0.75793 0.73929,-1.90755 0.74152,-2.55472 0,-0.64718 0.41589,-1.96627 0.91935,-2.93131 0.50345,-0.96505 2.27484,-5.77678 3.93643,-10.69275 1.66159,-4.91596 3.28922,-9.21515 3.61697,-9.553758 0.32771,-0.338601 0.59589,-1.952803 0.59589,-3.587111 0,-2.548823 -0.63244,-3.985016 -4.44636,-10.097336 -2.44552,-3.919232 -4.9505,-8.100782 -5.56671,-9.292339 -1.8882,-2.640421 0.0207,-3.350181 2.0162,-5.420032 1.72509,-1.789455 3.57394,-3.750123 4.1086,-4.35703 1.1417,-1.296023 9.84853,-10.925497 13.02633,-14.406681 l 2.20273,-2.413019 23.83681,-0.204316 c 13.11027,-0.112371 24.10075,-0.04122 24.42322,0.158071 0.32251,0.199313 0.79061,2.616501 1.04029,5.371527 l 0.45389,5.00914 -2.51955,0.09361 c -7.42245,0.275766 -20.64791,0.504739 -30.38548,0.526062 l -11.01677,0.02411 -4.72041,4.999674 c -2.59623,2.749821 -4.88901,5.671348 -5.09504,6.492287 -0.27399,1.091536 0.87025,3.67708 4.25828,9.62207 2.54811,4.4712 4.80144,8.972065 5.00742,10.001928 0.242,1.209911 -0.45752,4.632444 -1.97685,9.672357 -1.29324,4.28993 -3.23115,11.23079 -4.30644,15.42413 -1.07534,4.19334 -2.36505,8.79073 -2.86612,10.21643 -0.50102,1.4257 -1.27619,4.56812 -1.72251,6.98315 -1.30138,7.04088 -2.82796,6.63092 24.56921,6.59795 12.72864,-0.0153 53.76312,-0.26323 91.18772,-0.55092 55.07736,-0.42339 68.45057,-0.6915 70.17421,-1.40693 2.22503,-0.92353 3.53942,-3.17561 4.33714,-7.43131 0.61466,-3.27914 -0.73639,-4.18209 -8.6794,-5.80078 -8.56218,-1.74486 -17.18927,-4.47823 -26.50136,-8.39659 -12.97859,-5.46117 -16.04996,-8.86892 -10.53105,-11.68444 2.06509,-1.05355 4.21483,-1.35865 11.23669,-1.59481 4.77568,-0.16062 9.38603,-0.44208 10.24523,-0.62548 0.8592,-0.1834 5.79067,-0.49673 10.9588,-0.69629 5.16819,-0.19956 11.72962,-0.51344 14.58102,-0.69751 2.8514,-0.18407 11.89163,-0.77277 20.0894,-1.30823 8.19777,-0.53545 21.1749,-1.14889 28.83801,-1.363197 13.75017,-0.38454 13.94956,-0.371061 15.19743,1.027077 1.25752,1.40891 1.25571,1.43306 -0.32402,4.37543 -2.03206,3.7849 -11.5521,12.66881 -15.81054,14.75405 -4.28555,2.09854 -13.81746,5.19755 -19.78637,6.43295 -2.61199,0.5406 -5.1192,1.36521 -5.57153,1.83244 -0.85086,0.87876 -4.48525,9.90178 -6.43768,15.98251 -1.31781,4.10431 -1.12376,4.70552 3.36579,10.42636 1.71659,2.18739 3.78023,4.91351 4.58583,6.05804 0.80554,1.14454 2.26364,2.9769 3.24022,4.07193 0.97653,1.09503 3.23359,3.95744 5.01572,6.3609 1.78212,2.40346 4.28295,5.59022 5.55742,7.08167 1.27442,1.49145 4.19063,5.13549 6.48045,8.09785 8.74913,11.31895 14.70347,18.90624 19.39231,24.7106 8.40157,10.40036 13.59786,17.09328 16.0034,20.61281 1.27898,1.87123 2.55195,3.40224 2.82885,3.40224 0.27684,0 1.16207,1.09357 1.9671,2.43017 0.80503,1.33659 2.65144,3.80834 4.10316,5.49279 4.65867,5.4056 6.61967,7.84432 10.56461,13.1385 2.12465,2.8514 4.52693,5.7676 5.33839,6.48045 0.8114,0.71285 3.49016,4.06649 5.95278,7.45252 2.46263,3.38604 6.29107,8.51745 8.5077,11.40313 2.21657,2.88569 6.11282,8.00003 8.65835,11.36521 5.48769,7.25491 5.5934,7.35042 9.20151,8.31527 9.82618,2.62759 12.93363,15.45749 5.31143,21.92963 -3.72476,3.16279 -9.36182,4.14625 -13.21997,2.30643 -2.40222,-1.14554 -6.01168,-0.82169 -15.31781,1.37437 -2.31674,0.54671 -6.83688,1.43922 -10.0447,1.98335 -3.20782,0.54414 -9.18601,1.71931 -13.28495,2.61149 -4.09886,0.89219 -10.95196,2.36336 -15.22906,3.26928 -4.27709,0.90592 -10.25528,2.18692 -13.28492,2.84667 -3.02959,0.65974 -6.67487,1.3898 -8.10057,1.62234 -1.42569,0.23254 -3.48752,0.69518 -4.58183,1.02809 -1.09431,0.33291 -5.177,1.14662 -9.07263,1.80825 -3.89563,0.66162 -13.06117,2.40424 -20.3679,3.87248 -7.30669,1.46824 -16.49275,3.26405 -20.41343,3.99069 -3.92067,0.72664 -10.33631,2.02087 -14.25699,2.87607 -3.92067,0.8552 -8.5866,1.74638 -10.36872,1.9804 -6.77694,0.88993 -12.63688,2.88216 -12.63688,4.29626 0,0.38481 -2.24918,3.01091 -4.99819,5.83578 l -4.99819,5.13612 1.76284,8.56041 c 3.75254,18.22268 5.18332,24.15189 6.07368,25.16984 0.56235,0.64292 2.30673,1.17099 4.45736,1.34934 1.94336,0.16116 3.65228,0.41486 3.7976,0.56379 0.14526,0.14892 0.46592,1.62649 0.71254,3.28349 0.43642,2.93216 0.39904,3.02231 -1.3975,3.37143 -1.01525,0.19729 -6.2202,0.54041 -11.56657,0.76248 -5.34637,0.22207 -10.15808,0.50161 -10.69274,0.6212 -0.53461,0.11959 -1.33658,0.0733 -1.78213,-0.10294 z m 35.02207,-79.93356 c 17.08242,-2.61898 23.01665,-3.59295 43.87743,-7.2015 6.23746,-1.07897 13.23634,-2.21176 15.55308,-2.51732 2.31679,-0.30557 6.83688,-1.03546 10.0447,-1.62199 3.20782,-0.58654 7.72796,-1.30211 10.0447,-1.59017 2.31678,-0.28806 5.96201,-0.82657 8.10056,-1.1967 2.13855,-0.37013 5.92961,-0.98072 8.42459,-1.35687 4.99238,-0.75267 35.31075,-5.70968 39.68972,-6.48924 4.70948,-0.83837 6.52722,-3.759 4.59397,-7.38122 -0.41553,-0.77852 -3.55751,-4.62332 -6.98219,-8.544 -3.42469,-3.92067 -7.8161,-9.16983 -9.75868,-11.66481 -4.7187,-6.06039 -8.45629,-10.59753 -10.09247,-12.25144 -1.19448,-1.20745 -3.42339,-4.03956 -8.70174,-11.05677 -1.51109,-2.00887 -5.17311,-6.59444 -10.24622,-12.83029 -1.18011,-1.45059 -2.56532,-3.44893 -3.07821,-4.44074 -0.51289,-0.99181 -1.31828,-2.0365 -1.7898,-2.32154 -0.47152,-0.28503 -2.06897,-2.17384 -3.54989,-4.19736 -1.48096,-2.02353 -2.98365,-3.859 -3.33935,-4.07884 -0.3557,-0.21983 -1.66319,-1.91786 -2.90552,-3.77339 -1.24233,-1.85553 -3.37632,-4.58403 -4.74219,-6.06335 -4.7765,-5.17326 -8.4011,-9.63917 -9.40173,-11.584 -0.55488,-1.07845 -1.98292,-3.03954 -3.17351,-4.35798 -1.19058,-1.31843 -3.76856,-4.30421 -5.72892,-6.63507 -1.96031,-2.33085 -5.2683,-6.20217 -7.35106,-8.60293 -2.08277,-2.40076 -4.25818,-5.09407 -4.83426,-5.98513 -0.57609,-0.89106 -2.736,-3.45341 -4.79979,-5.6941 -2.06379,-2.2407 -3.75233,-4.34745 -3.75233,-4.68169 0,-0.74223 -3.4419,-2.58511 -4.82815,-2.58511 -2.04849,0 -3.44184,2.60019 -6.44924,12.0355 -1.69591,5.32071 -4.19197,13.02764 -5.54685,17.12653 -1.35483,4.09888 -3.68494,11.68101 -5.17799,16.84917 -1.49304,5.16816 -3.2649,10.70894 -3.93741,12.31286 -0.67252,1.60391 -1.71115,4.66592 -2.30798,6.80447 -0.59687,2.13855 -1.90017,6.51285 -2.89614,9.72068 -0.99602,3.20782 -3.16178,10.20671 -4.81285,15.55308 -3.69562,11.9669 -12.14872,38.33817 -13.91762,43.41902 -3.89045,11.17474 -7.29419,22.50577 -7.36807,24.52847 -0.0695,1.90384 0.26912,2.78666 1.42949,3.72626 0.83634,0.67723 1.79239,1.23132 2.1245,1.23132 0.33216,0 8.2465,-1.17171 17.58742,-2.60381 z m 42.36603,-19.26771 c 0.5581,-1.33659 2.29294,-4.97602 3.85525,-8.08761 1.56225,-3.1116 2.84051,-6.34713 2.84051,-7.19007 0,-1.67975 -1.35006,-3.12465 -5.03956,-5.39354 -3.10813,-1.91137 -5.51881,-1.65851 23.28789,-2.44269 l 19.22039,-0.52321 1.47267,1.69371 c 2.30575,2.6519 9.05335,14.87274 8.51111,15.41495 -0.26766,0.26769 -3.5448,0.95321 -7.28242,1.52336 -18.28238,2.78884 -23.83053,3.68187 -34.01365,5.47478 -6.05923,1.06684 -11.65802,1.94438 -12.4418,1.9501 -1.39537,0.0102 -1.40392,-0.0402 -0.41039,-2.41978 z m 74.00771,-22.68312 c -2.00699,-1.33574 -6.17475,-4.03254 -9.26173,-5.99287 -3.08692,-1.96034 -8.88117,-5.67421 -12.87609,-8.25305 -3.99491,-2.57883 -8.57576,-5.53507 -10.1797,-6.56942 -1.60388,-1.03435 -3.57233,-2.21538 -4.3743,-2.62452 -1.9023,-0.97051 -1.83915,-2.20714 0.29743,-5.8257 0.96548,-1.63522 2.35069,-4.0494 3.07821,-5.36484 3.70583,-6.7008 4.31173,-7.653 4.86977,-7.653 0.33253,0 2.37522,2.11425 4.53938,4.69833 2.16421,2.58408 5.16694,6.10569 6.67284,7.8258 1.50585,1.72011 3.00019,3.61564 3.32079,4.2123 0.32055,0.59665 1.92444,2.54738 3.56425,4.33496 1.63976,1.78759 4.29369,4.96284 5.89757,7.05612 1.60394,2.09327 3.67387,4.71338 4.5999,5.82247 5.18923,6.2153 6.41948,8.25339 5.74386,9.51578 -0.93479,1.74663 -1.73163,1.58672 -5.89218,-1.18236 z m -168.31403,18.36366 c 0.80445,-1.76559 -0.17353,-12.36463 -1.34239,-14.54871 -0.36742,-0.6865 -1.76761,-1.50822 -3.1115,-1.82605 -2.31767,-0.54811 -2.44354,-0.71014 -2.44354,-3.14574 l 0,-2.56788 10.20857,-0.0971 c 5.61472,-0.0535 10.31522,0.0924 10.44561,0.32402 0.13039,0.23164 0.43294,1.50692 0.67231,2.83394 0.41656,2.30914 0.32972,2.46316 -2.02102,3.58524 l -2.4563,1.17246 0.14381,4.37838 c 0.21365,6.50656 1.17224,9.51261 3.03337,9.51261 1.5888,0 2.1132,-1.02884 4.6243,-9.07263 0.61196,-1.96033 1.65759,-4.78527 2.32363,-6.27763 0.66598,-1.49236 1.61679,-4.27168 2.11288,-6.17627 0.4961,-1.9046 1.97022,-6.51598 3.27585,-10.24752 1.30557,-3.73154 2.94207,-8.87192 3.63657,-11.42305 1.07378,-3.94419 6.65008,-20.80905 8.96578,-27.11579 2.75554,-7.5047 7.52629,-22.20042 8.52029,-26.24583 0.65686,-2.67318 1.828,-6.2882 2.6026,-8.03338 0.77454,-1.74518 2.37438,-6.4111 3.55517,-10.36872 1.18079,-3.95762 3.20581,-10.4035 4.50008,-14.32418 2.71697,-8.23059 4.85464,-16.23869 4.86568,-18.22792 0.0171,-3.11057 0.80114,-3.06516 -44.57151,-2.58244 -23.42061,0.24918 -54.68521,0.57995 -69.47681,0.73505 -41.57899,0.43599 -71.49985,0.98774 -72.69195,1.34048 -0.59563,0.17624 -1.67117,1.44899 -2.39014,2.82833 -2.70712,5.19372 -2.38756,8.91117 1.05579,12.2824 0.97311,0.95272 3.9564,4.19653 6.62961,7.20849 2.67316,3.01198 5.59346,6.20804 6.48952,7.10239 0.89607,0.89435 3.52065,3.81064 5.83241,6.48065 2.31176,2.67001 5.68859,6.46107 7.5041,8.42459 1.81546,1.96351 8.91171,9.83985 15.76948,17.50298 6.85772,7.66314 15.60519,17.28661 19.43876,21.38549 13.30826,14.2292 17.24837,18.5244 22.00715,23.99052 2.63142,3.02254 5.33978,5.94242 6.01857,6.48862 0.67879,0.54619 1.73365,1.75427 2.34411,2.68461 0.61046,0.93035 5.65438,6.60749 11.20875,12.61587 5.55431,6.00838 11.51031,12.52824 13.23556,14.48858 3.44372,3.91296 6.57823,6.48045 7.9116,6.48045 0.47302,0 1.181,-0.70437 1.57325,-1.56527 z m -131.64975,89.667 c -0.007,-4.23243 -2.30968,-9.80931 -7.74688,-18.7609 -0.3247,-0.53464 -2.18609,-4.17989 -4.13635,-8.10057 -1.9503,-3.92067 -5.32273,-10.31446 -7.49435,-14.20842 -2.17163,-3.89397 -3.94841,-7.15419 -3.94841,-7.24494 0,-0.15649 -5.27779,-9.65325 -16.45781,-29.61391 -2.75533,-4.9194 -4.91441,-9.43951 -4.79787,-10.0447 0.12645,-0.65665 3.08278,-2.55917 7.33152,-4.71812 3.91585,-1.98977 11.34815,-5.82726 16.51634,-8.52776 5.16813,-2.7005 12.11113,-6.32167 15.42881,-8.04705 l 6.03221,-3.13705 1.58134,1.94413 c 0.86978,1.06928 2.64832,3.98548 3.95235,6.48045 1.30407,2.49498 3.26816,5.84861 4.36471,7.45252 2.1216,3.10334 6.8516,10.76949 10.5958,17.1732 1.25036,2.13855 3.6768,5.95069 5.39199,8.47142 4.47099,6.57062 5.38614,9.19754 4.97751,14.28809 -0.35513,4.42423 -2.98236,10.31899 -9.20764,20.65951 -3.66928,6.09487 -6.74475,11.42506 -14.58262,25.27376 -3.63107,6.41565 -6.87083,11.94186 -7.19947,12.28046 -0.36824,0.37936 -0.59895,-0.24242 -0.60118,-1.62012 z m 431.96066,-4.01788 c -0.13666,-0.44552 -0.40293,-1.91693 -0.59179,-3.26978 -0.32662,-2.34007 -10.92615,-23.04153 -13.46799,-26.30366 -0.6623,-0.85002 -1.20422,-1.84204 -1.20422,-2.20448 0,-0.36244 -1.36546,-3.0206 -3.03441,-5.90702 -1.66895,-2.88642 -4.68832,-8.31006 -6.70975,-12.05252 -3.9241,-7.26503 -8.47368,-15.44661 -12.97309,-23.32962 -6.59518,-11.55481 -8.40519,-15.38242 -7.57487,-16.01862 1.40315,-1.07513 9.39241,-5.35908 22.47722,-12.05258 19.64924,-10.05157 21.49757,-10.92189 22.43283,-10.563 1.0362,0.39763 1.45126,1.03681 16.2496,25.02525 3.40804,5.52458 8.06039,13.0252 10.3385,16.66803 2.27811,3.64283 4.3884,7.72552 4.68951,9.07263 1.20106,5.37244 -1.22931,11.26846 -13.16377,31.93535 -8.36009,14.47704 -13.11871,22.93799 -14.85246,26.40784 -1.7646,3.53151 -2.1961,3.95919 -2.61531,2.59218 z M 35.264639,366.25162 c -3.056025,-1.12307 -8.159925,-4.02675 -10.152482,-5.77587 -0.846088,-0.74273 -2.960322,-3.21654 -4.698327,-5.49735 l -3.159972,-4.14692 0,-11.24569 0,-11.24569 5.832406,-11.95046 c 3.207823,-6.57276 5.832406,-12.67498 5.832406,-13.56049 0,-1.2787 -0.83349,-2.11976 -4.050282,-4.08711 l -4.050282,-2.47709 11.988835,-0.41579 c 6.593833,-0.22868 17.138667,-0.59792 23.432844,-0.82056 l 11.444064,-0.40478 5.712699,9.56918 c 3.14193,5.26304 6.182246,10.44403 6.756155,11.5133 4.733218,8.81851 6.935586,12.70549 8.562698,15.1126 1.040864,1.53985 1.706484,2.98572 1.47915,3.21305 -0.227334,0.22733 -2.150836,-0.5419 -4.274506,-1.7094 -2.401551,-1.32025 -4.329511,-1.97408 -5.100011,-1.72954 -1.891514,0.60035 -4.451033,4.43294 -13.08569,19.59454 -4.82778,8.47709 -6.809969,11.81156 -8.491206,14.28415 l -1.872747,2.75419 -9.851582,-0.0457 c -6.602595,-0.0306 -10.643908,-0.33683 -12.25417,-0.92859 z m 431.357701,-4.57488 c -2.33172,-0.81477 -4.89005,-1.90768 -5.68522,-2.42868 -2.2314,-1.46209 -7.5489,-6.79542 -7.5489,-7.57142 0,-0.86982 -0.52922,-0.72657 12.9609,-3.50834 19.96622,-4.11719 31.26196,-6.21617 33.45266,-6.21617 l 1.56361,0 -1.70488,3.40224 c -0.9377,1.87123 -2.078,3.83966 -2.53401,4.3743 -0.45597,0.53464 -2.0541,3.30503 -3.55134,6.15643 -1.49725,2.8514 -3.10761,5.5867 -3.57851,6.07845 -0.63389,0.66188 -3.22975,0.9331 -9.99555,1.04433 -8.08848,0.13298 -9.62668,-0.0201 -13.37876,-1.33114 z M 99.231566,297.35199 c -1.069274,-0.59827 -4.92478,-3.05604 -8.567727,-5.46171 -3.642998,-2.40566 -6.800015,-4.37394 -7.015632,-4.37394 -0.215618,0 -2.484139,-1.42341 -5.041221,-3.16314 -4.425111,-3.01069 -11.459771,-7.54058 -15.665946,-10.08797 -1.069275,-0.64757 -2.595447,-1.76836 -3.391507,-2.49062 -1.435964,-1.30287 -1.43783,-1.32898 -0.232985,-3.31647 0.667901,-1.10179 2.066747,-3.60718 3.108492,-5.56751 4.503706,-8.47499 10.847342,-19.84216 11.572945,-20.73745 0.433257,-0.53463 2.25753,-3.74246 4.053963,-7.12849 7.151048,-13.47885 8.05629,-14.96125 10.044233,-16.44879 5.28867,-3.9573 3.781888,-3.797 37.320759,-3.97055 l 30.78002,-0.15927 -2.62821,2.35075 c -2.55641,2.28654 -6.70587,7.31373 -6.70587,8.12438 0,0.2215 -0.97741,1.92926 -2.17204,3.79501 -1.19458,1.86574 -3.40431,5.43361 -4.91042,7.92858 -1.50611,2.49497 -4.31779,7.01509 -6.24819,10.0447 -3.13923,4.92689 -4.76417,7.65293 -8.08065,13.55634 -0.54887,0.97694 -2.03129,3.35687 -3.2943,5.28874 -1.26302,1.93186 -3.23396,5.11639 -4.37986,7.07672 -1.14589,1.96034 -3.38953,5.60559 -4.98585,8.10057 -1.59637,2.49497 -3.78028,6.14022 -4.85318,8.10056 -1.98789,3.6321 -4.59397,7.48971 -5.9882,8.86395 -0.59501,0.58648 -1.22501,0.5113 -2.718624,-0.32439 z m 90.402294,-13.37486 c 0,-0.16444 1.61068,-2.71612 3.57928,-5.6704 4.28374,-6.42864 5.40765,-8.24591 7.73066,-12.4999 1.86694,-3.41879 7.48337,-15.86719 7.48337,-16.58635 0,-0.23215 0.61683,-1.81651 1.37069,-3.52081 l 1.37069,-3.09871 2.23436,2.36829 c 2.65756,2.81684 3.89071,2.92354 7.73704,0.66945 1.59434,-0.93437 3.01947,-1.57822 3.16692,-1.43078 0.41309,0.41309 -2.82164,7.09221 -4.50127,9.29432 -0.82302,1.07899 -3.00284,4.87217 -4.84417,8.42929 -1.84127,3.55711 -4.64752,8.80044 -6.23616,11.65184 -1.58859,2.8514 -3.359,6.20503 -3.93421,7.45252 -0.57525,1.24749 -1.37764,2.48241 -1.7831,2.74427 -0.79114,0.51091 -13.3741,0.69624 -13.3741,0.19697 z m 399.09503,-4.29963 c -0.36555,-0.22593 1.03858,-1.54372 3.12031,-2.92843 2.8768,-1.91356 3.8343,-2.94688 3.99066,-4.30653 0.20597,-1.7913 -1.9656,-6.23071 -5.87129,-12.00272 -1.03267,-1.52616 -2.89427,-4.73398 -4.13691,-7.1285 -2.93533,-5.65635 -5.07539,-9.3939 -7.77462,-13.57834 -1.20355,-1.86574 -2.18827,-3.56497 -2.18827,-3.77606 0,-0.21109 1.75128,-3.52631 3.89174,-7.36714 4.16657,-7.47652 9.16689,-13.00362 13.99067,-15.46452 3.14427,-1.60409 11.37143,-3.37693 15.6266,-3.36732 7.42852,0.0168 14.93941,3.90531 19.25648,9.96947 1.04169,1.46322 3.01009,4.14544 4.37431,5.96049 1.36421,1.81505 2.48035,3.53332 2.48035,3.8184 0,0.28507 1.25638,2.00786 2.79198,3.82841 1.53556,1.82054 3.46409,4.41856 4.2856,5.77336 0.82147,1.35479 2.19029,2.91972 3.04177,3.47763 1.44385,0.94605 1.78156,0.90017 5.01364,-0.68114 1.90603,-0.93253 3.6767,-1.69551 3.93478,-1.69551 0.38084,0 -2.78753,6.36323 -6.62722,13.30978 -0.3865,0.69918 -3.68023,6.7655 -7.31944,13.48071 -3.63921,6.71522 -6.93636,12.32433 -7.32706,12.46471 -1.22719,0.441 -43.85544,0.64503 -44.55408,0.21325 z M 160.91608,266.61689 c -0.4849,-0.80196 -2.43759,-4.2285 -4.33931,-7.61453 -1.90168,-3.38604 -5.17182,-9.01464 -7.26697,-12.50801 -2.549,-4.25018 -3.68033,-6.75793 -3.4195,-7.57981 0.21442,-0.67552 2.10288,-4.08715 4.19658,-7.58139 7.57808,-12.6473 14.90493,-17.0199 28.54799,-17.03723 10.12071,-0.0129 11.48274,1.58427 8.16091,9.56952 -0.8481,2.0387 -1.74121,4.43578 -1.98472,5.32684 -1.34073,4.90626 -8.9831,20.62993 -12.91409,26.56985 -5.13703,7.76235 -8.65146,12.31286 -9.50947,12.31286 -0.32433,0 -0.98648,-0.65615 -1.47142,-1.4581 z m 386.83432,-1.703 c -0.60574,-0.66935 -2.47356,-3.10802 -4.1507,-5.41929 -1.67714,-2.31128 -5.23652,-7.02892 -7.90973,-10.48364 -4.63746,-5.99332 -6.43213,-8.3586 -12.89,-16.98846 -1.56495,-2.09126 -3.35003,-4.23972 -3.96687,-4.77435 -2.0866,-1.80851 -4.44175,-6.70533 -3.89594,-8.10057 0.73416,-1.87691 3.75882,-4.72003 7.12933,-6.70147 l 2.93072,-1.72291 30.429,-0.1924 30.42899,-0.19241 -2.88707,2.20772 c -2.03315,1.55475 -3.82482,3.91166 -6.05772,7.96884 -3.24738,5.90047 -6.58761,11.4481 -10.68725,17.74996 -1.2753,1.96034 -4.09751,6.77207 -6.27157,10.69275 -5.30308,9.56338 -10.00312,17.17319 -10.60663,17.17319 -0.27125,0 -0.98882,-0.54763 -1.59456,-1.21696 z"
       id="path3413"
       inkscape:connector-curvature="0"
       sodipodi:nodetypes="cssssscscscsssscsssscccssssssscscsssssscccccsscccccscsscssccscsscsssccscsscsscsssscssssssssssscscscssscsssssssssssssscsssscsscsscccscscccsscscscscccssssssssssssssssscssccscssssssscsssssssssssssssssssscssscssscccsssssssscsscssssccssssssssssscssccssssssccssscscssscsssccccsscccccssscsscsscsccsscsccsscsscsscsssssssssssssssccsssscsssccccscssscccccsssscscsscssccsscccssscsscsssssssscsccscssscscscsssssssscscssscsscsscsscsssssssccscscscccscscssssssscssccssscsccccscsssssscssssscscccssssss" />
  </g>
</svg>
